<svg width="48" height="48" viewBox="0 0 48 48" fill="none" xmlns="http://www.w3.org/2000/svg">
<g clip-path="url(#clip0_238_454)">
<path fill-rule="evenodd" clip-rule="evenodd" d="M12 0H36C42.6274 0 48 5.37258 48 12V36C48 42.6274 42.6274 48 36 48H12C5.37258 48 0 42.6274 0 36V12C0 5.37258 5.37258 0 12 0Z" fill="#171717" fill-opacity="0.0392157"/>
<path d="M29.3124 20.875C28.9481 20.8746 28.5895 20.9657 28.2695 21.1398C28.0759 20.5405 27.6333 20.0536 27.0551 19.8039C26.4768 19.5542 25.819 19.5659 25.2499 19.8359V17.4375C25.2499 16.2294 24.2706 15.25 23.0624 15.25C21.8543 15.25 20.8749 16.2294 20.8749 17.4375V23.6875L20.5765 23.2086C19.9696 22.1634 18.6303 21.808 17.5851 22.4148C16.5398 23.0217 16.1845 24.361 16.7913 25.4062L17.1562 26.0492C19.8445 30.7883 20.957 32.75 24.6249 32.75C28.4201 32.7457 31.4956 29.6702 31.4999 25.875V23.0625C31.4999 21.8544 30.5206 20.875 29.3124 20.875ZM30.2499 25.875C30.2465 28.9802 27.7301 31.4966 24.6249 31.5C21.6851 31.5 20.8874 30.0937 18.2437 25.4312L17.8773 24.7852V24.7812C17.6182 24.3333 17.771 23.7603 18.2187 23.5008C18.3611 23.4183 18.5229 23.3752 18.6874 23.3758C19.0229 23.3753 19.333 23.554 19.5007 23.8445C19.5039 23.8508 19.5076 23.8568 19.5117 23.8625L20.9702 26.2063C21.1181 26.4424 21.4045 26.5521 21.6723 26.4753C21.9401 26.3984 22.1247 26.1536 22.1249 25.875V17.4375C22.1249 16.9197 22.5447 16.5 23.0624 16.5C23.5802 16.5 23.9999 16.9197 23.9999 17.4375V22.75C23.9999 23.0952 24.2798 23.375 24.6249 23.375C24.9701 23.375 25.2499 23.0952 25.2499 22.75V21.8125C25.2499 21.2947 25.6697 20.875 26.1874 20.875C26.7052 20.875 27.1249 21.2947 27.1249 21.8125V23.375C27.1249 23.7202 27.4048 24 27.7499 24C28.0951 24 28.3749 23.7202 28.3749 23.375V23.0625C28.3749 22.5447 28.7947 22.125 29.3124 22.125C29.8302 22.125 30.2499 22.5447 30.2499 23.0625V25.875Z" fill="black"/>
</g>
<defs>
<clipPath id="clip0_238_454">
<rect width="48" height="48" fill="white"/>
</clipPath>
</defs>
</svg>
