<svg width="48" height="48" viewBox="0 0 48 48" fill="none" xmlns="http://www.w3.org/2000/svg">
<g clip-path="url(#clip0_238_457)">
<path fill-rule="evenodd" clip-rule="evenodd" d="M12 0H36C42.6274 0 48 5.37258 48 12V36C48 42.6274 42.6274 48 36 48H12C5.37258 48 0 42.6274 0 36V12C0 5.37258 5.37258 0 12 0Z" fill="#171717" fill-opacity="0.0392157"/>
<path d="M24 15.875C19.5127 15.875 15.875 19.5127 15.875 24C15.875 28.4873 19.5127 32.125 24 32.125C28.4873 32.125 32.125 28.4873 32.125 24C32.1203 19.5146 28.4854 15.8797 24 15.875ZM24 30.875C20.203 30.875 17.125 27.797 17.125 24C17.125 20.203 20.203 17.125 24 17.125C27.797 17.125 30.875 20.203 30.875 24C30.8707 27.7952 27.7952 30.8707 24 30.875ZM25.25 27.75C25.25 28.0952 24.9702 28.375 24.625 28.375C23.9346 28.375 23.375 27.8154 23.375 27.125V24C23.0298 24 22.75 23.7202 22.75 23.375C22.75 23.0298 23.0298 22.75 23.375 22.75C24.0654 22.75 24.625 23.3096 24.625 24V27.125C24.9702 27.125 25.25 27.4048 25.25 27.75ZM22.75 20.5625C22.75 20.0447 23.1697 19.625 23.6875 19.625C24.2053 19.625 24.625 20.0447 24.625 20.5625C24.625 21.0803 24.2053 21.5 23.6875 21.5C23.1697 21.5 22.75 21.0803 22.75 20.5625Z" fill="black"/>
</g>
<defs>
<clipPath id="clip0_238_457">
<rect width="48" height="48" fill="white"/>
</clipPath>
</defs>
</svg>
