<svg width="72" height="72" viewBox="0 0 72 72" fill="none" xmlns="http://www.w3.org/2000/svg">
<g clip-path="url(#clip0_234_418)">
<path fill-rule="evenodd" clip-rule="evenodd" d="M16 0H56C64.8366 0 72 7.16344 72 16V56C72 64.8366 64.8366 72 56 72H16C7.16344 72 0 64.8366 0 56V16C0 7.16344 7.16344 0 16 0Z" fill="white"/>
<path d="M36 19.75C35.3097 19.75 34.75 20.3096 34.75 21V29.75C34.75 30.4404 35.3097 31 36 31C38.2629 31.0005 40.2434 32.5208 40.8288 34.7067C41.4141 36.8926 40.4583 39.1992 38.4984 40.3304C36.5385 41.4616 34.0632 41.1356 32.4632 39.5353C30.8631 37.9351 30.5373 35.4598 31.6688 33.5C31.8346 33.2128 31.8795 32.8715 31.7937 32.5513C31.7078 32.231 31.4982 31.9579 31.211 31.7922L23.6328 27.4172C23.3457 27.2514 23.0044 27.2064 22.6841 27.2923C22.3638 27.3782 22.0907 27.5878 21.925 27.875C18.2477 34.2443 19.3067 42.2894 24.5071 47.4901C29.7074 52.6908 37.7525 53.7504 44.122 50.0734C50.4916 46.3965 53.5975 38.8999 51.6946 31.7957C49.7918 24.6915 43.3547 19.7509 36 19.75ZM23.5141 30.2344L28.9688 33.3844C28.6584 34.2215 28.4996 35.1072 28.5 36C28.5 36.2391 28.5125 36.4688 28.5344 36.7062L22.45 38.3438C21.9755 35.5952 22.3466 32.7674 23.5141 30.2344ZM23.0969 40.7516L29.1907 39.1203C30.225 41.375 32.3052 42.974 34.75 43.3937V49.6922C29.4688 49.2027 24.9372 45.7259 23.0969 40.7516ZM37.25 49.6922V43.3937C40.8571 42.7824 43.4967 39.6577 43.4967 35.9992C43.4967 32.3407 40.8571 29.2161 37.25 28.6047V22.3063C44.3297 22.9531 49.749 28.8901 49.749 35.9992C49.749 43.1084 44.3297 49.0454 37.25 49.6922Z" fill="black"/>
</g>
<defs>
<clipPath id="clip0_234_418">
<rect width="72" height="72" fill="white"/>
</clipPath>
</defs>
</svg>
