<svg width="72" height="72" viewBox="0 0 72 72" fill="none" xmlns="http://www.w3.org/2000/svg">
<g clip-path="url(#clip0_234_424)">
<path fill-rule="evenodd" clip-rule="evenodd" d="M16 0H56C64.8366 0 72 7.16344 72 16V56C72 64.8366 64.8366 72 56 72H16C7.16344 72 0 64.8366 0 56V16C0 7.16344 7.16344 0 16 0Z" fill="white"/>
<path d="M51.4311 26.7812C51.2771 26.4008 50.9463 26.1202 50.5459 26.0304C50.1455 25.9406 49.7265 26.053 49.4248 26.3312L43.1279 32.1422L40.4357 31.564L39.8576 28.8719L45.6686 22.575C45.9468 22.2733 46.0592 21.8543 45.9694 21.4539C45.8796 21.0535 45.599 20.7226 45.2186 20.5687C41.7504 19.1658 37.8117 19.5787 34.7099 21.6704C31.6081 23.7621 29.7491 27.2588 29.7498 31C29.7478 32.5557 30.0669 34.0951 30.6873 35.5219L21.2795 43.6562C21.2561 43.675 21.2342 43.6969 21.2123 43.7172C19.949 44.9804 19.4557 46.8217 19.9181 48.5473C20.3805 50.273 21.7283 51.6209 23.454 52.0833C25.1797 52.5457 27.0209 52.0523 28.2842 50.789C28.3045 50.7687 28.3264 50.7453 28.3451 50.7234L36.4779 41.3125C39.9584 42.8403 43.9751 42.5073 47.1564 40.4271C50.3378 38.347 52.2536 34.801 52.2498 31C52.2522 29.554 51.9742 28.1213 51.4311 26.7812ZM40.9998 39.75C39.5202 39.748 38.0652 39.3717 36.7701 38.6562C36.253 38.3706 35.6065 38.4859 35.2201 38.9328L26.4857 49.0484C25.5028 49.9822 23.9547 49.9624 22.996 49.0037C22.0374 48.0451 22.0175 46.497 22.9514 45.514L33.0592 36.7812C33.5069 36.3946 33.6223 35.7471 33.3357 35.2297C31.7097 32.2887 31.9116 28.6763 33.8554 25.9349C35.7991 23.1935 39.1411 21.8075 42.4545 22.3687L37.5795 27.6515C37.3042 27.9501 37.1912 28.3638 37.2764 28.7609L38.1607 32.875C38.2641 33.3556 38.6395 33.731 39.1201 33.8344L43.2373 34.7187C43.6344 34.8039 44.0481 34.6909 44.3467 34.4156L49.6295 29.5406C50.0558 32.0801 49.343 34.6786 47.6807 36.6452C46.0183 38.6118 43.5749 39.7474 40.9998 39.75Z" fill="black"/>
</g>
<defs>
<clipPath id="clip0_234_424">
<rect width="72" height="72" fill="white"/>
</clipPath>
</defs>
</svg>
