<svg width="72" height="72" viewBox="0 0 72 72" fill="none" xmlns="http://www.w3.org/2000/svg">
<g clip-path="url(#clip0_234_415)">
<path fill-rule="evenodd" clip-rule="evenodd" d="M16 0H56C64.8366 0 72 7.16344 72 16V56C72 64.8366 64.8366 72 56 72H16C7.16344 72 0 64.8366 0 56V16C0 7.16344 7.16344 0 16 0Z" fill="white"/>
<path d="M36 19.75C27.0254 19.75 19.75 27.0254 19.75 36C19.75 44.9746 27.0254 52.25 36 52.25C44.9746 52.25 52.25 44.9746 52.25 36C52.2405 27.0293 44.9707 19.7595 36 19.75ZM27.575 46.8594C29.4127 43.9853 32.5887 42.2463 36 42.2463C39.4113 42.2463 42.5873 43.9853 44.425 46.8594C39.4695 50.7134 32.5305 50.7134 27.575 46.8594ZM31 34.75C31 31.9886 33.2386 29.75 36 29.75C38.7614 29.75 41 31.9886 41 34.75C41 37.5114 38.7614 39.75 36 39.75C33.2386 39.75 31 37.5114 31 34.75ZM46.275 45.1266C44.8809 43.1064 42.9206 41.5435 40.6406 40.6344C43.1511 38.6571 44.1329 35.3063 43.0866 32.2868C42.0403 29.2673 39.1956 27.2425 36 27.2425C32.8044 27.2425 29.9597 29.2673 28.9134 32.2868C27.8671 35.3063 28.8489 38.6571 31.3594 40.6344C29.0794 41.5435 27.1191 43.1064 25.725 45.1266C20.8174 39.6078 21.1459 31.198 26.4689 26.0788C31.7919 20.9597 40.2081 20.9597 45.5311 26.0788C50.8541 31.198 51.1826 39.6078 46.275 45.1266Z" fill="black"/>
</g>
<defs>
<clipPath id="clip0_234_415">
<rect width="72" height="72" fill="white"/>
</clipPath>
</defs>
</svg>
