<svg width="72" height="72" viewBox="0 0 72 72" fill="none" xmlns="http://www.w3.org/2000/svg">
<g clip-path="url(#clip0_234_421)">
<path fill-rule="evenodd" clip-rule="evenodd" d="M16 0H56C64.8366 0 72 7.16344 72 16V56C72 64.8366 64.8366 72 56 72H16C7.16344 72 0 64.8366 0 56V16C0 7.16344 7.16344 0 16 0Z" fill="white"/>
<path d="M36 19.75C27.0254 19.75 19.75 27.0254 19.75 36C19.75 44.9746 27.0254 52.25 36 52.25C44.9746 52.25 52.25 44.9746 52.25 36C52.2397 27.0297 44.9703 19.7603 36 19.75ZM49.6906 34.75H43.4672C43.1875 29.0453 40.9906 25.0109 39.1891 22.625C44.9243 24.0022 49.147 28.877 49.6922 34.75H49.6906ZM31.0359 37.25H40.9641C40.6031 43.7516 37.4906 47.7359 36 49.2812C34.5078 47.7344 31.3969 43.75 31.0359 37.25ZM31.0359 34.75C31.3969 28.2484 34.5094 24.2641 36 22.7188C37.4922 24.2703 40.6031 28.2547 40.9641 34.75H31.0359ZM32.8109 22.625C31.0094 25.0109 28.8125 29.0453 28.5328 34.75H22.3078C22.853 28.877 27.0757 24.0022 32.8109 22.625ZM22.3078 37.25H28.5328C28.8172 42.9547 31.0094 46.9891 32.8109 49.375C27.0757 47.9978 22.853 43.123 22.3078 37.25ZM39.1828 49.375C40.9844 46.9891 43.1766 42.9547 43.4609 37.25H49.6859C49.1415 43.1212 44.9218 47.9954 39.1891 49.375H39.1828Z" fill="black"/>
</g>
<defs>
<clipPath id="clip0_234_421">
<rect width="72" height="72" fill="white"/>
</clipPath>
</defs>
</svg>
