<svg width="264" height="64" viewBox="0 0 264 64" fill="none" xmlns="http://www.w3.org/2000/svg">
<path d="M81.0083 47.905V49.13H82.6049V49.907H81.0083V51.202H82.8087V52H80.0571V47.107H82.8087V47.905H81.0083ZM88.346 48.066C88.808 48.066 89.1805 48.2118 89.4636 48.5035C89.7467 48.7952 89.8882 49.2023 89.8882 49.725V52H88.937V49.858C88.937 49.5547 88.8623 49.3225 88.7128 49.1615C88.5634 49.0005 88.3595 48.92 88.1014 48.92C87.8432 48.92 87.6382 49.0005 87.4865 49.1615C87.3348 49.3225 87.2589 49.5547 87.2589 49.858V52H86.3077V49.858C86.3077 49.5547 86.233 49.3225 86.0835 49.1615C85.934 49.0005 85.7302 48.92 85.472 48.92C85.2093 48.92 85.0021 49.0005 84.8504 49.1615C84.6986 49.3225 84.6228 49.5547 84.6228 49.858V52H83.6716V48.122H84.6228V48.591C84.7451 48.4277 84.9025 48.2993 85.095 48.206C85.2875 48.1127 85.4992 48.066 85.7302 48.066C86.0246 48.066 86.2873 48.1302 86.5183 48.2585C86.7493 48.3868 86.9282 48.57 87.0551 48.808C87.1774 48.584 87.3551 48.4043 87.5884 48.269C87.8217 48.1337 88.0742 48.066 88.346 48.066ZM91.743 48.682C91.8653 48.5047 92.034 48.3565 92.2492 48.2375C92.4643 48.1185 92.71 48.059 92.9863 48.059C93.3079 48.059 93.5989 48.1407 93.8594 48.304C94.1198 48.4673 94.3259 48.6995 94.4776 49.0005C94.6294 49.3015 94.7052 49.6503 94.7052 50.047C94.7052 50.4437 94.6294 50.7948 94.4776 51.1005C94.3259 51.4062 94.1198 51.643 93.8594 51.811C93.5989 51.979 93.3079 52.063 92.9863 52.063C92.71 52.063 92.4666 52.0047 92.256 51.888C92.0453 51.7713 91.8744 51.6243 91.743 51.447V53.848H90.7918V48.122H91.743V48.682ZM93.7337 50.047C93.7337 49.8137 93.6873 49.6118 93.5944 49.4415C93.5016 49.2712 93.3793 49.1417 93.2275 49.053C93.0758 48.9643 92.9116 48.92 92.735 48.92C92.5628 48.92 92.4009 48.9655 92.2492 49.0565C92.0974 49.1475 91.9751 49.2793 91.8823 49.452C91.7894 49.6247 91.743 49.8277 91.743 50.061C91.743 50.2943 91.7894 50.4973 91.8823 50.67C91.9751 50.8427 92.0974 50.9745 92.2492 51.0655C92.4009 51.1565 92.5628 51.202 92.735 51.202C92.9116 51.202 93.0758 51.1553 93.2275 51.062C93.3793 50.9687 93.5016 50.8357 93.5944 50.663C93.6873 50.4903 93.7337 50.285 93.7337 50.047ZM97.0696 52.063C96.7072 52.063 96.3811 51.9802 96.0912 51.8145C95.8014 51.6488 95.5738 51.4143 95.4084 51.111C95.2431 50.8077 95.1605 50.4577 95.1605 50.061C95.1605 49.6643 95.2454 49.3143 95.4152 49.011C95.5851 48.7077 95.8172 48.4732 96.1116 48.3075C96.406 48.1418 96.7344 48.059 97.0968 48.059C97.4591 48.059 97.7875 48.1418 98.0819 48.3075C98.3763 48.4732 98.6085 48.7077 98.7783 49.011C98.9482 49.3143 99.0331 49.6643 99.0331 50.061C99.0331 50.4577 98.9459 50.8077 98.7715 51.111C98.5971 51.4143 98.3616 51.6488 98.0649 51.8145C97.7683 51.9802 97.4365 52.063 97.0696 52.063ZM97.0696 51.209C97.2417 51.209 97.4036 51.1658 97.5554 51.0795C97.7071 50.9932 97.8283 50.8637 97.9189 50.691C98.0095 50.5183 98.0547 50.3083 98.0547 50.061C98.0547 49.6923 97.9608 49.4088 97.7728 49.2105C97.5848 49.0122 97.355 48.913 97.0832 48.913C96.8114 48.913 96.5838 49.0122 96.4004 49.2105C96.2169 49.4088 96.1252 49.6923 96.1252 50.061C96.1252 50.4297 96.2147 50.7132 96.3936 50.9115C96.5725 51.1098 96.7978 51.209 97.0696 51.209ZM104.951 48.122L103.85 52H102.824L102.138 49.291L101.452 52H100.419L99.3117 48.122H100.276L100.942 51.076L101.662 48.122H102.668L103.375 51.069L104.04 48.122H104.951ZM108.966 49.977C108.966 50.117 108.957 50.243 108.939 50.355H106.187C106.21 50.635 106.305 50.8543 106.473 51.013C106.64 51.1717 106.846 51.251 107.091 51.251C107.444 51.251 107.696 51.0947 107.845 50.782H108.871C108.762 51.1553 108.554 51.4622 108.246 51.7025C107.938 51.9428 107.56 52.063 107.111 52.063C106.749 52.063 106.424 51.9802 106.136 51.8145C105.849 51.6488 105.625 51.4143 105.464 51.111C105.303 50.8077 105.223 50.4577 105.223 50.061C105.223 49.6597 105.302 49.3073 105.46 49.004C105.619 48.7007 105.841 48.4673 106.126 48.304C106.412 48.1407 106.74 48.059 107.111 48.059C107.469 48.059 107.79 48.1383 108.073 48.297C108.356 48.4557 108.575 48.6808 108.732 48.9725C108.888 49.2642 108.966 49.599 108.966 49.977ZM107.981 49.697C107.976 49.445 107.888 49.2432 107.716 49.0915C107.544 48.9398 107.333 48.864 107.084 48.864C106.849 48.864 106.65 48.9375 106.49 49.0845C106.329 49.2315 106.23 49.4357 106.194 49.697H107.981ZM110.61 48.724C110.733 48.5187 110.892 48.3577 111.089 48.241C111.286 48.1243 111.512 48.066 111.765 48.066V49.095H111.514C111.215 49.095 110.99 49.1673 110.838 49.312C110.686 49.4567 110.61 49.7087 110.61 50.068V52H109.659V48.122H110.61V48.724ZM112.886 47.66C112.719 47.66 112.579 47.6052 112.468 47.4955C112.357 47.3858 112.302 47.2493 112.302 47.086C112.302 46.9227 112.357 46.7862 112.468 46.6765C112.579 46.5668 112.719 46.512 112.886 46.512C113.054 46.512 113.193 46.5668 113.304 46.6765C113.415 46.7862 113.471 46.9227 113.471 47.086C113.471 47.2493 113.415 47.3858 113.304 47.4955C113.193 47.6052 113.054 47.66 112.886 47.66ZM113.355 48.122V52H112.404V48.122H113.355ZM116.378 48.066C116.827 48.066 117.189 48.2118 117.466 48.5035C117.742 48.7952 117.88 49.2023 117.88 49.725V52H116.929V49.858C116.929 49.55 116.854 49.3132 116.705 49.1475C116.555 48.9818 116.351 48.899 116.093 48.899C115.83 48.899 115.623 48.9818 115.471 49.1475C115.32 49.3132 115.244 49.55 115.244 49.858V52H114.293V48.122H115.244V48.605C115.371 48.437 115.533 48.3052 115.73 48.2095C115.927 48.1138 116.143 48.066 116.378 48.066ZM120.258 48.059C120.539 48.059 120.786 48.1162 120.998 48.2305C121.211 48.3448 121.379 48.493 121.501 48.675V48.122H122.459V52.028C122.459 52.3873 122.389 52.7082 122.249 52.9905C122.108 53.2728 121.898 53.4968 121.617 53.6625C121.336 53.8282 120.996 53.911 120.598 53.911C120.063 53.911 119.625 53.7827 119.283 53.526C118.941 53.2693 118.747 52.9193 118.702 52.476H119.646C119.696 52.6533 119.804 52.7945 119.969 52.8995C120.134 53.0045 120.335 53.057 120.57 53.057C120.847 53.057 121.071 52.9718 121.243 52.8015C121.415 52.6312 121.501 52.3733 121.501 52.028V51.426C121.379 51.608 121.21 51.7597 120.995 51.881C120.78 52.0023 120.534 52.063 120.258 52.063C119.941 52.063 119.651 51.979 119.388 51.811C119.126 51.643 118.918 51.4062 118.767 51.1005C118.615 50.7948 118.539 50.4437 118.539 50.047C118.539 49.655 118.615 49.3073 118.767 49.004C118.918 48.7007 119.124 48.4673 119.385 48.304C119.645 48.1407 119.936 48.059 120.258 48.059ZM121.501 50.061C121.501 49.823 121.456 49.6188 121.365 49.4485C121.275 49.2782 121.152 49.1475 120.998 49.0565C120.844 48.9655 120.679 48.92 120.503 48.92C120.326 48.92 120.163 48.9643 120.013 49.053C119.864 49.1417 119.743 49.2712 119.65 49.4415C119.557 49.6118 119.511 49.8137 119.511 50.047C119.511 50.2803 119.557 50.4845 119.65 50.6595C119.743 50.8345 119.865 50.9687 120.017 51.062C120.168 51.1553 120.33 51.202 120.503 51.202C120.679 51.202 120.844 51.1565 120.998 51.0655C121.152 50.9745 121.275 50.8438 121.365 50.6735C121.456 50.5032 121.501 50.299 121.501 50.061ZM126.644 52.049C126.314 52.049 126.016 51.9907 125.751 51.874C125.486 51.7573 125.277 51.5893 125.123 51.37C124.969 51.1507 124.889 50.8917 124.885 50.593H125.904C125.917 50.7937 125.986 50.9523 126.111 51.069C126.236 51.1857 126.407 51.244 126.624 51.244C126.846 51.244 127.02 51.1892 127.147 51.0795C127.274 50.9698 127.337 50.8263 127.337 50.649C127.337 50.5043 127.294 50.3853 127.208 50.292C127.122 50.1987 127.015 50.1252 126.886 50.0715C126.756 50.0178 126.579 49.9583 126.352 49.893C126.044 49.7997 125.794 49.7075 125.601 49.6165C125.409 49.5255 125.244 49.3878 125.106 49.2035C124.967 49.0192 124.898 48.773 124.898 48.465C124.898 48.1757 124.969 47.9237 125.109 47.709C125.249 47.4943 125.446 47.3298 125.7 47.2155C125.954 47.1012 126.244 47.044 126.57 47.044C127.059 47.044 127.456 47.1665 127.762 47.4115C128.068 47.6565 128.236 47.9983 128.268 48.437H127.222C127.213 48.269 127.144 48.1302 127.015 48.0205C126.886 47.9108 126.715 47.856 126.502 47.856C126.316 47.856 126.168 47.905 126.057 48.003C125.946 48.101 125.89 48.2433 125.89 48.43C125.89 48.5607 125.932 48.6692 126.016 48.7555C126.1 48.8418 126.204 48.9118 126.328 48.9655C126.453 49.0192 126.629 49.081 126.855 49.151C127.163 49.2443 127.414 49.3377 127.609 49.431C127.804 49.5243 127.972 49.6643 128.112 49.851C128.252 50.0377 128.323 50.2827 128.323 50.586C128.323 50.8473 128.257 51.09 128.126 51.314C127.994 51.538 127.802 51.7165 127.548 51.8495C127.294 51.9825 126.993 52.049 126.644 52.049ZM128.9 50.047C128.9 49.655 128.976 49.3073 129.128 49.004C129.279 48.7007 129.485 48.4673 129.746 48.304C130.006 48.1407 130.297 48.059 130.619 48.059C130.9 48.059 131.145 48.1173 131.356 48.234C131.567 48.3507 131.735 48.4977 131.862 48.675V48.122H132.82V52H131.862V51.433C131.74 51.615 131.571 51.7655 131.356 51.8845C131.141 52.0035 130.893 52.063 130.612 52.063C130.295 52.063 130.006 51.979 129.746 51.811C129.485 51.643 129.279 51.4062 129.128 51.1005C128.976 50.7948 128.9 50.4437 128.9 50.047ZM131.862 50.061C131.862 49.823 131.817 49.6188 131.726 49.4485C131.636 49.2782 131.514 49.1475 131.36 49.0565C131.206 48.9655 131.04 48.92 130.864 48.92C130.687 48.92 130.524 48.9643 130.374 49.053C130.225 49.1417 130.104 49.2712 130.011 49.4415C129.918 49.6118 129.872 49.8137 129.872 50.047C129.872 50.2803 129.918 50.4845 130.011 50.6595C130.104 50.8345 130.226 50.9687 130.378 51.062C130.529 51.1553 130.691 51.202 130.864 51.202C131.04 51.202 131.206 51.1565 131.36 51.0655C131.514 50.9745 131.636 50.8438 131.726 50.6735C131.817 50.5032 131.862 50.299 131.862 50.061ZM135.477 48.927H134.818V52H133.853V48.927H133.425V48.122H133.853V47.926C133.853 47.45 133.984 47.1 134.247 46.876C134.51 46.652 134.906 46.547 135.436 46.561V47.387C135.205 47.3823 135.044 47.422 134.954 47.506C134.863 47.59 134.818 47.7417 134.818 47.961V48.122H135.477V48.927ZM139.594 49.977C139.594 50.117 139.585 50.243 139.567 50.355H136.815C136.838 50.635 136.933 50.8543 137.101 51.013C137.268 51.1717 137.474 51.251 137.719 51.251C138.072 51.251 138.323 51.0947 138.473 50.782H139.499C139.39 51.1553 139.182 51.4622 138.874 51.7025C138.566 51.9428 138.188 52.063 137.739 52.063C137.377 52.063 137.052 51.9802 136.764 51.8145C136.477 51.6488 136.252 51.4143 136.092 51.111C135.931 50.8077 135.85 50.4577 135.85 50.061C135.85 49.6597 135.93 49.3073 136.088 49.004C136.247 48.7007 136.469 48.4673 136.754 48.304C137.039 48.1407 137.368 48.059 137.739 48.059C138.097 48.059 138.417 48.1383 138.701 48.297C138.984 48.4557 139.203 48.6808 139.36 48.9725C139.516 49.2642 139.594 49.599 139.594 49.977ZM138.609 49.697C138.604 49.445 138.516 49.2432 138.344 49.0915C138.172 48.9398 137.961 48.864 137.712 48.864C137.476 48.864 137.278 48.9375 137.118 49.0845C136.957 49.2315 136.858 49.4357 136.822 49.697H138.609ZM141.238 48.724C141.36 48.5187 141.52 48.3577 141.717 48.241C141.914 48.1243 142.14 48.066 142.393 48.066V49.095H142.142C141.843 49.095 141.617 49.1673 141.466 49.312C141.314 49.4567 141.238 49.7087 141.238 50.068V52H140.287V48.122H141.238V48.724ZM150.988 47.114L149.663 52H148.542L147.652 48.521L146.721 52L145.607 52.007L144.329 47.114H145.349L146.184 50.908L147.149 47.114H148.209L149.119 50.887L149.962 47.114H150.988ZM153.277 52.063C152.915 52.063 152.589 51.9802 152.299 51.8145C152.009 51.6488 151.781 51.4143 151.616 51.111C151.451 50.8077 151.368 50.4577 151.368 50.061C151.368 49.6643 151.453 49.3143 151.623 49.011C151.793 48.7077 152.025 48.4732 152.319 48.3075C152.614 48.1418 152.942 48.059 153.305 48.059C153.667 48.059 153.995 48.1418 154.29 48.3075C154.584 48.4732 154.816 48.7077 154.986 49.011C155.156 49.3143 155.241 49.6643 155.241 50.061C155.241 50.4577 155.154 50.8077 154.979 51.111C154.805 51.4143 154.569 51.6488 154.273 51.8145C153.976 51.9802 153.644 52.063 153.277 52.063ZM153.277 51.209C153.449 51.209 153.611 51.1658 153.763 51.0795C153.915 50.9932 154.036 50.8637 154.127 50.691C154.217 50.5183 154.262 50.3083 154.262 50.061C154.262 49.6923 154.168 49.4088 153.981 49.2105C153.793 49.0122 153.563 48.913 153.291 48.913C153.019 48.913 152.792 49.0122 152.608 49.2105C152.425 49.4088 152.333 49.6923 152.333 50.061C152.333 50.4297 152.422 50.7132 152.601 50.9115C152.78 51.1098 153.006 51.209 153.277 51.209ZM156.892 48.724C157.014 48.5187 157.174 48.3577 157.371 48.241C157.568 48.1243 157.793 48.066 158.047 48.066V49.095H157.795C157.496 49.095 157.271 49.1673 157.119 49.312C156.968 49.4567 156.892 49.7087 156.892 50.068V52H155.941V48.122H156.892V48.724ZM160.914 52L159.637 50.348V52H158.685V46.82H159.637V49.767L160.9 48.122H162.137L160.479 50.068L162.15 52H160.914ZM163.604 48.682C163.727 48.5047 163.895 48.3565 164.111 48.2375C164.326 48.1185 164.571 48.059 164.848 48.059C165.169 48.059 165.46 48.1407 165.721 48.304C165.981 48.4673 166.187 48.6995 166.339 49.0005C166.491 49.3015 166.567 49.6503 166.567 50.047C166.567 50.4437 166.491 50.7948 166.339 51.1005C166.187 51.4062 165.981 51.643 165.721 51.811C165.46 51.979 165.169 52.063 164.848 52.063C164.571 52.063 164.328 52.0047 164.117 51.888C163.907 51.7713 163.736 51.6243 163.604 51.447V53.848H162.653V48.122H163.604V48.682ZM165.595 50.047C165.595 49.8137 165.549 49.6118 165.456 49.4415C165.363 49.2712 165.241 49.1417 165.089 49.053C164.937 48.9643 164.773 48.92 164.596 48.92C164.424 48.92 164.262 48.9655 164.111 49.0565C163.959 49.1475 163.837 49.2793 163.744 49.452C163.651 49.6247 163.604 49.8277 163.604 50.061C163.604 50.2943 163.651 50.4973 163.744 50.67C163.837 50.8427 163.959 50.9745 164.111 51.0655C164.262 51.1565 164.424 51.202 164.596 51.202C164.773 51.202 164.937 51.1553 165.089 51.062C165.241 50.9687 165.363 50.8357 165.456 50.663C165.549 50.4903 165.595 50.285 165.595 50.047ZM168.211 46.82V52H167.26V46.82H168.211ZM168.904 50.047C168.904 49.655 168.98 49.3073 169.131 49.004C169.283 48.7007 169.489 48.4673 169.75 48.304C170.01 48.1407 170.301 48.059 170.623 48.059C170.904 48.059 171.149 48.1173 171.36 48.234C171.57 48.3507 171.739 48.4977 171.866 48.675V48.122H172.824V52H171.866V51.433C171.744 51.615 171.575 51.7655 171.36 51.8845C171.145 52.0035 170.897 52.063 170.616 52.063C170.299 52.063 170.01 51.979 169.75 51.811C169.489 51.643 169.283 51.4062 169.131 51.1005C168.98 50.7948 168.904 50.4437 168.904 50.047ZM171.866 50.061C171.866 49.823 171.821 49.6188 171.73 49.4485C171.64 49.2782 171.517 49.1475 171.363 49.0565C171.209 48.9655 171.044 48.92 170.867 48.92C170.691 48.92 170.528 48.9643 170.378 49.053C170.229 49.1417 170.107 49.2712 170.015 49.4415C169.922 49.6118 169.875 49.8137 169.875 50.047C169.875 50.2803 169.922 50.4845 170.015 50.6595C170.107 50.8345 170.23 50.9687 170.382 51.062C170.533 51.1553 170.695 51.202 170.867 51.202C171.044 51.202 171.209 51.1565 171.363 51.0655C171.517 50.9745 171.64 50.8438 171.73 50.6735C171.821 50.5032 171.866 50.299 171.866 50.061ZM173.51 50.061C173.51 49.6597 173.589 49.3085 173.748 49.0075C173.907 48.7065 174.126 48.4732 174.407 48.3075C174.688 48.1418 175.009 48.059 175.372 48.059C175.838 48.059 176.224 48.1792 176.53 48.4195C176.836 48.6598 177.041 48.997 177.145 49.431H176.119C176.065 49.263 175.973 49.1312 175.844 49.0355C175.715 48.9398 175.555 48.892 175.365 48.892C175.093 48.892 174.878 48.9935 174.72 49.1965C174.561 49.3995 174.482 49.6877 174.482 50.061C174.482 50.4297 174.561 50.7155 174.72 50.9185C174.878 51.1215 175.093 51.223 175.365 51.223C175.75 51.223 176.001 51.0457 176.119 50.691H177.145C177.041 51.111 176.835 51.4447 176.527 51.692C176.219 51.9393 175.834 52.063 175.372 52.063C175.009 52.063 174.688 51.9802 174.407 51.8145C174.126 51.6488 173.907 51.4155 173.748 51.1145C173.589 50.8135 173.51 50.4623 173.51 50.061ZM181.344 49.977C181.344 50.117 181.335 50.243 181.317 50.355H178.565C178.588 50.635 178.683 50.8543 178.85 51.013C179.018 51.1717 179.224 51.251 179.469 51.251C179.822 51.251 180.073 51.0947 180.223 50.782H181.249C181.14 51.1553 180.932 51.4622 180.624 51.7025C180.316 51.9428 179.937 52.063 179.489 52.063C179.127 52.063 178.802 51.9802 178.514 51.8145C178.226 51.6488 178.002 51.4143 177.841 51.111C177.681 50.8077 177.6 50.4577 177.6 50.061C177.6 49.6597 177.68 49.3073 177.838 49.004C177.997 48.7007 178.219 48.4673 178.504 48.304C178.789 48.1407 179.118 48.059 179.489 48.059C179.847 48.059 180.167 48.1383 180.45 48.297C180.733 48.4557 180.953 48.6808 181.109 48.9725C181.266 49.2642 181.344 49.599 181.344 49.977ZM180.359 49.697C180.354 49.445 180.266 49.2432 180.094 49.0915C179.922 48.9398 179.711 48.864 179.462 48.864C179.226 48.864 179.028 48.9375 178.867 49.0845C178.707 49.2315 178.608 49.4357 178.572 49.697H180.359ZM183.477 52.063C183.169 52.063 182.893 52.0058 182.648 51.8915C182.404 51.7772 182.21 51.622 182.067 51.426C181.925 51.23 181.847 51.013 181.833 50.775H182.791C182.809 50.9243 182.88 51.048 183.005 51.146C183.13 51.244 183.285 51.293 183.47 51.293C183.652 51.293 183.793 51.2557 183.895 51.181C183.997 51.1063 184.048 51.0107 184.048 50.894C184.048 50.768 183.986 50.6735 183.861 50.6105C183.736 50.5475 183.538 50.4787 183.267 50.404C182.986 50.334 182.756 50.2617 182.577 50.187C182.398 50.1123 182.244 49.998 182.115 49.844C181.986 49.69 181.921 49.4823 181.921 49.221C181.921 49.0063 181.981 48.8103 182.101 48.633C182.221 48.4557 182.394 48.3157 182.618 48.213C182.842 48.1103 183.106 48.059 183.409 48.059C183.858 48.059 184.215 48.1745 184.483 48.4055C184.75 48.6365 184.897 48.948 184.924 49.34H184.014C184 49.186 183.938 49.0635 183.827 48.9725C183.716 48.8815 183.568 48.836 183.382 48.836C183.21 48.836 183.077 48.8687 182.985 48.934C182.892 48.9993 182.845 49.0903 182.845 49.207C182.845 49.3377 182.909 49.4368 183.036 49.5045C183.162 49.5722 183.359 49.641 183.627 49.711C183.898 49.781 184.123 49.8533 184.299 49.928C184.476 50.0027 184.629 50.1182 184.758 50.2745C184.887 50.4308 184.954 50.6373 184.958 50.894C184.958 51.118 184.898 51.3187 184.778 51.496C184.658 51.6733 184.486 51.8122 184.262 51.9125C184.038 52.0128 183.776 52.063 183.477 52.063ZM190.584 47.114V47.905H189.32V52H188.369V47.905H187.105V47.114H190.584ZM193.397 48.066C193.682 48.066 193.936 48.1302 194.158 48.2585C194.379 48.3868 194.553 48.5758 194.677 48.8255C194.802 49.0752 194.864 49.375 194.864 49.725V52H193.913V49.858C193.913 49.55 193.838 49.3132 193.689 49.1475C193.539 48.9818 193.335 48.899 193.077 48.899C192.815 48.899 192.607 48.9818 192.456 49.1475C192.304 49.3132 192.228 49.55 192.228 49.858V52H191.277V46.82H192.228V48.605C192.35 48.437 192.513 48.3052 192.717 48.2095C192.921 48.1138 193.147 48.066 193.397 48.066ZM196.719 48.724C196.841 48.5187 197.001 48.3577 197.198 48.241C197.395 48.1243 197.62 48.066 197.874 48.066V49.095H197.623C197.324 49.095 197.098 49.1673 196.947 49.312C196.795 49.4567 196.719 49.7087 196.719 50.068V52H195.768V48.122H196.719V48.724ZM200.184 52.063C199.822 52.063 199.495 51.9802 199.206 51.8145C198.916 51.6488 198.688 51.4143 198.523 51.111C198.357 50.8077 198.275 50.4577 198.275 50.061C198.275 49.6643 198.36 49.3143 198.53 49.011C198.699 48.7077 198.932 48.4732 199.226 48.3075C199.52 48.1418 199.849 48.059 200.211 48.059C200.573 48.059 200.902 48.1418 201.196 48.3075C201.491 48.4732 201.723 48.7077 201.893 49.011C202.062 49.3143 202.147 49.6643 202.147 50.061C202.147 50.4577 202.06 50.8077 201.886 51.111C201.711 51.4143 201.476 51.6488 201.179 51.8145C200.883 51.9802 200.551 52.063 200.184 52.063ZM200.184 51.209C200.356 51.209 200.518 51.1658 200.67 51.0795C200.821 50.9932 200.943 50.8637 201.033 50.691C201.124 50.5183 201.169 50.3083 201.169 50.061C201.169 49.6923 201.075 49.4088 200.887 49.2105C200.699 49.0122 200.469 48.913 200.198 48.913C199.926 48.913 199.698 49.0122 199.515 49.2105C199.331 49.4088 199.24 49.6923 199.24 50.061C199.24 50.4297 199.329 50.7132 199.508 50.9115C199.687 51.1098 199.912 51.209 200.184 51.209ZM206.401 48.122V52H205.443V51.51C205.32 51.678 205.161 51.8098 204.964 51.9055C204.767 52.0012 204.553 52.049 204.322 52.049C204.027 52.049 203.767 51.9848 203.54 51.8565C203.314 51.7282 203.136 51.5392 203.007 51.2895C202.878 51.0398 202.813 50.7423 202.813 50.397V48.122H203.764V50.257C203.764 50.565 203.839 50.8018 203.989 50.9675C204.138 51.1332 204.342 51.216 204.6 51.216C204.863 51.216 205.069 51.1332 205.218 50.9675C205.368 50.8018 205.443 50.565 205.443 50.257V48.122H206.401ZM208.812 48.059C209.093 48.059 209.34 48.1162 209.553 48.2305C209.766 48.3448 209.933 48.493 210.056 48.675V48.122H211.014V52.028C211.014 52.3873 210.944 52.7082 210.803 52.9905C210.663 53.2728 210.452 53.4968 210.171 53.6625C209.89 53.8282 209.551 53.911 209.152 53.911C208.618 53.911 208.179 53.7827 207.837 53.526C207.496 53.2693 207.302 52.9193 207.257 52.476H208.201C208.251 52.6533 208.358 52.7945 208.524 52.8995C208.689 53.0045 208.889 53.057 209.125 53.057C209.401 53.057 209.625 52.9718 209.798 52.8015C209.97 52.6312 210.056 52.3733 210.056 52.028V51.426C209.933 51.608 209.765 51.7597 209.55 51.881C209.334 52.0023 209.089 52.063 208.812 52.063C208.495 52.063 208.206 51.979 207.943 51.811C207.68 51.643 207.473 51.4062 207.321 51.1005C207.169 50.7948 207.094 50.4437 207.094 50.047C207.094 49.655 207.169 49.3073 207.321 49.004C207.473 48.7007 207.679 48.4673 207.939 48.304C208.2 48.1407 208.491 48.059 208.812 48.059ZM210.056 50.061C210.056 49.823 210.01 49.6188 209.92 49.4485C209.829 49.2782 209.707 49.1475 209.553 49.0565C209.399 48.9655 209.234 48.92 209.057 48.92C208.88 48.92 208.717 48.9643 208.568 49.053C208.418 49.1417 208.297 49.2712 208.204 49.4415C208.112 49.6118 208.065 49.8137 208.065 50.047C208.065 50.2803 208.112 50.4845 208.204 50.6595C208.297 50.8345 208.42 50.9687 208.571 51.062C208.723 51.1553 208.885 51.202 209.057 51.202C209.234 51.202 209.399 51.1565 209.553 51.0655C209.707 50.9745 209.829 50.8438 209.92 50.6735C210.01 50.5032 210.056 50.299 210.056 50.061ZM214.064 48.066C214.35 48.066 214.603 48.1302 214.825 48.2585C215.047 48.3868 215.22 48.5758 215.345 48.8255C215.47 49.0752 215.532 49.375 215.532 49.725V52H214.581V49.858C214.581 49.55 214.506 49.3132 214.356 49.1475C214.207 48.9818 214.003 48.899 213.745 48.899C213.482 48.899 213.275 48.9818 213.123 49.1475C212.972 49.3132 212.896 49.55 212.896 49.858V52H211.945V46.82H212.896V48.605C213.018 48.437 213.181 48.3052 213.385 48.2095C213.589 48.1138 213.815 48.066 214.064 48.066ZM219.69 52.049C219.359 52.049 219.061 51.9907 218.796 51.874C218.531 51.7573 218.322 51.5893 218.168 51.37C218.014 51.1507 217.935 50.8917 217.93 50.593H218.949C218.963 50.7937 219.032 50.9523 219.156 51.069C219.281 51.1857 219.452 51.244 219.669 51.244C219.891 51.244 220.066 51.1892 220.193 51.0795C220.319 50.9698 220.383 50.8263 220.383 50.649C220.383 50.5043 220.34 50.3853 220.254 50.292C220.168 50.1987 220.06 50.1252 219.931 50.0715C219.802 50.0178 219.624 49.9583 219.398 49.893C219.09 49.7997 218.839 49.7075 218.647 49.6165C218.454 49.5255 218.289 49.3878 218.151 49.2035C218.013 49.0192 217.944 48.773 217.944 48.465C217.944 48.1757 218.014 47.9237 218.154 47.709C218.295 47.4943 218.492 47.3298 218.745 47.2155C218.999 47.1012 219.289 47.044 219.615 47.044C220.104 47.044 220.502 47.1665 220.807 47.4115C221.113 47.6565 221.282 47.9983 221.314 48.437H220.267C220.258 48.269 220.189 48.1302 220.06 48.0205C219.931 47.9108 219.76 47.856 219.547 47.856C219.361 47.856 219.213 47.905 219.102 48.003C218.991 48.101 218.936 48.2433 218.936 48.43C218.936 48.5607 218.978 48.6692 219.061 48.7555C219.145 48.8418 219.249 48.9118 219.374 48.9655C219.498 49.0192 219.674 49.081 219.9 49.151C220.208 49.2443 220.46 49.3377 220.655 49.431C220.849 49.5243 221.017 49.6643 221.157 49.851C221.298 50.0377 221.368 50.2827 221.368 50.586C221.368 50.8473 221.302 51.09 221.171 51.314C221.04 51.538 220.847 51.7165 220.593 51.8495C220.34 51.9825 220.039 52.049 219.69 52.049ZM226.864 48.066C227.326 48.066 227.699 48.2118 227.982 48.5035C228.265 48.7952 228.407 49.2023 228.407 49.725V52H227.456V49.858C227.456 49.5547 227.381 49.3225 227.231 49.1615C227.082 49.0005 226.878 48.92 226.62 48.92C226.362 48.92 226.157 49.0005 226.005 49.1615C225.853 49.3225 225.777 49.5547 225.777 49.858V52H224.826V49.858C224.826 49.5547 224.751 49.3225 224.602 49.1615C224.453 49.0005 224.249 48.92 223.991 48.92C223.728 48.92 223.521 49.0005 223.369 49.1615C223.217 49.3225 223.141 49.5547 223.141 49.858V52H222.19V48.122H223.141V48.591C223.264 48.4277 223.421 48.2993 223.613 48.206C223.806 48.1127 224.018 48.066 224.249 48.066C224.543 48.066 224.806 48.1302 225.037 48.2585C225.268 48.3868 225.447 48.57 225.574 48.808C225.696 48.584 225.874 48.4043 226.107 48.269C226.34 48.1337 226.593 48.066 226.864 48.066ZM229.066 50.047C229.066 49.655 229.142 49.3073 229.293 49.004C229.445 48.7007 229.651 48.4673 229.912 48.304C230.172 48.1407 230.463 48.059 230.785 48.059C231.065 48.059 231.311 48.1173 231.522 48.234C231.732 48.3507 231.901 48.4977 232.028 48.675V48.122H232.986V52H232.028V51.433C231.906 51.615 231.737 51.7655 231.522 51.8845C231.307 52.0035 231.059 52.063 230.778 52.063C230.461 52.063 230.172 51.979 229.912 51.811C229.651 51.643 229.445 51.4062 229.293 51.1005C229.142 50.7948 229.066 50.4437 229.066 50.047ZM232.028 50.061C232.028 49.823 231.983 49.6188 231.892 49.4485C231.801 49.2782 231.679 49.1475 231.525 49.0565C231.371 48.9655 231.206 48.92 231.029 48.92C230.853 48.92 230.69 48.9643 230.54 49.053C230.391 49.1417 230.269 49.2712 230.177 49.4415C230.084 49.6118 230.037 49.8137 230.037 50.047C230.037 50.2803 230.084 50.4845 230.177 50.6595C230.269 50.8345 230.392 50.9687 230.543 51.062C230.695 51.1553 230.857 51.202 231.029 51.202C231.206 51.202 231.371 51.1565 231.525 51.0655C231.679 50.9745 231.801 50.8438 231.892 50.6735C231.983 50.5032 232.028 50.299 232.028 50.061ZM234.868 48.724C234.99 48.5187 235.15 48.3577 235.347 48.241C235.544 48.1243 235.769 48.066 236.023 48.066V49.095H235.772C235.473 49.095 235.247 49.1673 235.095 49.312C234.944 49.4567 234.868 49.7087 234.868 50.068V52H233.917V48.122H234.868V48.724ZM237.769 48.927V50.803C237.769 50.9337 237.8 51.0282 237.861 51.0865C237.922 51.1448 238.025 51.174 238.17 51.174H238.611V52H238.014C237.212 52 236.811 51.5987 236.811 50.796V48.927H236.363V48.122H236.811V47.163H237.769V48.122H238.611V48.927H237.769ZM245.175 47.114L243.435 52H242.28L240.541 47.114H241.56L242.865 50.999L244.162 47.114H245.175ZM246.228 47.66C246.06 47.66 245.921 47.6052 245.81 47.4955C245.699 47.3858 245.643 47.2493 245.643 47.086C245.643 46.9227 245.699 46.7862 245.81 46.6765C245.921 46.5668 246.06 46.512 246.228 46.512C246.395 46.512 246.535 46.5668 246.645 46.6765C246.756 46.7862 246.812 46.9227 246.812 47.086C246.812 47.2493 246.756 47.3858 246.645 47.4955C246.535 47.6052 246.395 47.66 246.228 47.66ZM246.696 48.122V52H245.745V48.122H246.696ZM249.074 52.063C248.766 52.063 248.49 52.0058 248.246 51.8915C248.001 51.7772 247.807 51.622 247.665 51.426C247.522 51.23 247.444 51.013 247.43 50.775H248.388C248.406 50.9243 248.478 51.048 248.602 51.146C248.727 51.244 248.882 51.293 249.068 51.293C249.249 51.293 249.39 51.2557 249.492 51.181C249.594 51.1063 249.645 51.0107 249.645 50.894C249.645 50.768 249.583 50.6735 249.458 50.6105C249.334 50.5475 249.136 50.4787 248.864 50.404C248.583 50.334 248.353 50.2617 248.174 50.187C247.995 50.1123 247.841 49.998 247.712 49.844C247.583 49.69 247.519 49.4823 247.519 49.221C247.519 49.0063 247.579 48.8103 247.699 48.633C247.819 48.4557 247.991 48.3157 248.215 48.213C248.439 48.1103 248.703 48.059 249.006 48.059C249.455 48.059 249.813 48.1745 250.08 48.4055C250.347 48.6365 250.494 48.948 250.522 49.34H249.611C249.598 49.186 249.535 49.0635 249.424 48.9725C249.313 48.8815 249.165 48.836 248.979 48.836C248.807 48.836 248.675 48.8687 248.582 48.934C248.489 48.9993 248.443 49.0903 248.443 49.207C248.443 49.3377 248.506 49.4368 248.633 49.5045C248.76 49.5722 248.957 49.641 249.224 49.711C249.496 49.781 249.72 49.8533 249.896 49.928C250.073 50.0027 250.226 50.1182 250.355 50.2745C250.484 50.4308 250.551 50.6373 250.555 50.894C250.555 51.118 250.495 51.3187 250.375 51.496C250.255 51.6733 250.083 51.8122 249.859 51.9125C249.635 52.0128 249.373 52.063 249.074 52.063ZM251.819 47.66C251.652 47.66 251.512 47.6052 251.401 47.4955C251.29 47.3858 251.235 47.2493 251.235 47.086C251.235 46.9227 251.29 46.7862 251.401 46.6765C251.512 46.5668 251.652 46.512 251.819 46.512C251.987 46.512 252.126 46.5668 252.237 46.6765C252.348 46.7862 252.404 46.9227 252.404 47.086C252.404 47.2493 252.348 47.3858 252.237 47.4955C252.126 47.6052 251.987 47.66 251.819 47.66ZM252.288 48.122V52H251.337V48.122H252.288ZM254.897 52.063C254.535 52.063 254.208 51.9802 253.919 51.8145C253.629 51.6488 253.401 51.4143 253.236 51.111C253.07 50.8077 252.988 50.4577 252.988 50.061C252.988 49.6643 253.073 49.3143 253.243 49.011C253.412 48.7077 253.645 48.4732 253.939 48.3075C254.233 48.1418 254.562 48.059 254.924 48.059C255.286 48.059 255.615 48.1418 255.909 48.3075C256.204 48.4732 256.436 48.7077 256.606 49.011C256.776 49.3143 256.86 49.6643 256.86 50.061C256.86 50.4577 256.773 50.8077 256.599 51.111C256.424 51.4143 256.189 51.6488 255.892 51.8145C255.596 51.9802 255.264 52.063 254.897 52.063ZM254.897 51.209C255.069 51.209 255.231 51.1658 255.383 51.0795C255.534 50.9932 255.656 50.8637 255.746 50.691C255.837 50.5183 255.882 50.3083 255.882 50.061C255.882 49.6923 255.788 49.4088 255.6 49.2105C255.412 49.0122 255.182 48.913 254.911 48.913C254.639 48.913 254.411 49.0122 254.228 49.2105C254.044 49.4088 253.953 49.6923 253.953 50.061C253.953 50.4297 254.042 50.7132 254.221 50.9115C254.4 51.1098 254.625 51.209 254.897 51.209ZM259.646 48.066C260.094 48.066 260.457 48.2118 260.733 48.5035C261.009 48.7952 261.148 49.2023 261.148 49.725V52H260.196V49.858C260.196 49.55 260.122 49.3132 259.972 49.1475C259.823 48.9818 259.619 48.899 259.361 48.899C259.098 48.899 258.891 48.9818 258.739 49.1475C258.587 49.3132 258.511 49.55 258.511 49.858V52H257.56V48.122H258.511V48.605C258.638 48.437 258.8 48.3052 258.997 48.2095C259.194 48.1138 259.411 48.066 259.646 48.066Z" fill="#1EBCF6"/>
<path d="M87.4618 38.224C85.8674 38.224 84.4387 37.9573 83.1757 37.424C81.9126 36.8907 80.9032 36.1013 80.1474 35.056C79.3917 34.0107 78.9931 32.752 78.9517 31.28H84.6044C84.6872 32.112 84.9667 32.7467 85.443 33.184C85.9192 33.6213 86.5404 33.84 87.3065 33.84C88.0933 33.84 88.7145 33.6533 89.17 33.28C89.6255 32.9067 89.8533 32.3893 89.8533 31.728C89.8533 31.1733 89.6721 30.7147 89.3098 30.352C88.9474 29.9893 88.5022 29.6907 87.9742 29.456C87.4462 29.2213 86.6957 28.9547 85.7225 28.656C84.3145 28.208 83.1653 27.76 82.275 27.312C81.3846 26.864 80.6185 26.2027 79.9766 25.328C79.3347 24.4533 79.0138 23.312 79.0138 21.904C79.0138 19.8133 79.7488 18.176 81.219 16.992C82.6891 15.808 84.6044 15.216 86.9648 15.216C89.3667 15.216 91.3027 15.808 92.7728 16.992C94.243 18.176 95.0298 19.824 95.1333 21.936H89.3874C89.346 21.2107 89.0872 20.64 88.611 20.224C88.1347 19.808 87.5239 19.6 86.7785 19.6C86.1366 19.6 85.619 19.776 85.2255 20.128C84.8321 20.48 84.6354 20.9867 84.6354 21.648C84.6354 22.3733 84.9667 22.9387 85.6293 23.344C86.2919 23.7493 87.3272 24.1867 88.7352 24.656C90.1432 25.1467 91.2872 25.616 92.1672 26.064C93.0472 26.512 93.8081 27.1627 94.45 28.016C95.0919 28.8693 95.4128 29.968 95.4128 31.312C95.4128 32.592 95.0971 33.7547 94.4655 34.8C93.834 35.8453 92.9178 36.6773 91.7168 37.296C90.5159 37.9147 89.0975 38.224 87.4618 38.224ZM107.778 19.952C109.807 19.952 111.428 20.6293 112.639 21.984C113.85 23.3387 114.456 25.2 114.456 27.568V38H109.176V28.304C109.176 27.1093 108.876 26.1813 108.275 25.52C107.675 24.8587 106.867 24.528 105.852 24.528C104.838 24.528 104.03 24.8587 103.43 25.52C102.829 26.1813 102.529 27.1093 102.529 28.304V38H97.2181V20.144H102.529V22.512C103.068 21.7227 103.792 21.0987 104.703 20.64C105.614 20.1813 106.639 19.952 107.778 19.952ZM115.64 29.04C115.64 27.2053 115.976 25.5947 116.649 24.208C117.322 22.8213 118.238 21.7547 119.398 21.008C120.558 20.2613 121.852 19.888 123.28 19.888C124.502 19.888 125.574 20.144 126.495 20.656C127.416 21.168 128.126 21.84 128.622 22.672V20.144H133.934V38H128.622V35.472C128.105 36.304 127.385 36.976 126.464 37.488C125.542 38 124.471 38.256 123.249 38.256C121.841 38.256 120.558 37.8773 119.398 37.12C118.238 36.3627 117.322 35.2853 116.649 33.888C115.976 32.4907 115.64 30.8747 115.64 29.04ZM128.622 29.072C128.622 27.7067 128.255 26.6293 127.52 25.84C126.785 25.0507 125.889 24.656 124.833 24.656C123.777 24.656 122.882 25.0453 122.147 25.824C121.412 26.6027 121.044 27.6747 121.044 29.04C121.044 30.4053 121.412 31.488 122.147 32.288C122.882 33.088 123.777 33.488 124.833 33.488C125.889 33.488 126.785 33.0933 127.52 32.304C128.255 31.5147 128.622 30.4373 128.622 29.072ZM141.64 22.672C142.158 21.84 142.872 21.168 143.783 20.656C144.694 20.144 145.76 19.888 146.982 19.888C148.411 19.888 149.705 20.2613 150.864 21.008C152.024 21.7547 152.94 22.8213 153.613 24.208C154.286 25.5947 154.623 27.2053 154.623 29.04C154.623 30.8747 154.286 32.4907 153.613 33.888C152.94 35.2853 152.024 36.3627 150.864 37.12C149.705 37.8773 148.411 38.256 146.982 38.256C145.781 38.256 144.72 38 143.799 37.488C142.877 36.976 142.158 36.3147 141.64 35.504V46.512H136.329V20.144H141.64V22.672ZM149.218 29.04C149.218 27.6747 148.851 26.6027 148.116 25.824C147.381 25.0453 146.475 24.656 145.398 24.656C144.342 24.656 143.447 25.0507 142.712 25.84C141.976 26.6293 141.609 27.7067 141.609 29.072C141.609 30.4373 141.976 31.5147 142.712 32.304C143.447 33.0933 144.342 33.488 145.398 33.488C146.454 33.488 147.355 33.088 148.1 32.288C148.846 31.488 149.218 30.4053 149.218 29.04ZM169.535 34.032H161.397L160.093 38H154.533L162.422 15.536H168.572L176.461 38H170.839L169.535 34.032ZM168.168 29.808L165.466 21.584L162.795 29.808H168.168ZM194.51 20.144V38H189.199V35.568C188.66 36.3573 187.931 36.992 187.009 37.472C186.088 37.952 185.068 38.192 183.95 38.192C182.625 38.192 181.455 37.888 180.44 37.28C179.426 36.672 178.639 35.792 178.08 34.64C177.521 33.488 177.241 32.1333 177.241 30.576V20.144H182.521V29.84C182.521 31.0347 182.821 31.9627 183.422 32.624C184.022 33.2853 184.83 33.616 185.844 33.616C186.88 33.616 187.698 33.2853 188.298 32.624C188.899 31.9627 189.199 31.0347 189.199 29.84V20.144H194.51ZM195.818 29.04C195.818 27.2053 196.155 25.5947 196.828 24.208C197.501 22.8213 198.417 21.7547 199.576 21.008C200.736 20.2613 202.03 19.888 203.459 19.888C204.598 19.888 205.638 20.1333 206.58 20.624C207.522 21.1147 208.262 21.776 208.801 22.608V14.32H214.112V38H208.801V35.44C208.304 36.2933 207.595 36.976 206.673 37.488C205.752 38 204.68 38.256 203.459 38.256C202.03 38.256 200.736 37.8773 199.576 37.12C198.417 36.3627 197.501 35.2853 196.828 33.888C196.155 32.4907 195.818 30.8747 195.818 29.04ZM208.801 29.072C208.801 27.7067 208.433 26.6293 207.698 25.84C206.963 25.0507 206.068 24.656 205.012 24.656C203.956 24.656 203.06 25.0453 202.325 25.824C201.59 26.6027 201.222 27.6747 201.222 29.04C201.222 30.4053 201.59 31.488 202.325 32.288C203.06 33.088 203.956 33.488 205.012 33.488C206.068 33.488 206.963 33.0933 207.698 32.304C208.433 31.5147 208.801 30.4373 208.801 29.072ZM219.178 18.288C218.247 18.288 217.486 18.0053 216.896 17.44C216.305 16.8747 216.01 16.176 216.01 15.344C216.01 14.4907 216.305 13.7813 216.896 13.216C217.486 12.6507 218.247 12.368 219.178 12.368C220.089 12.368 220.84 12.6507 221.43 13.216C222.02 13.7813 222.315 14.4907 222.315 15.344C222.315 16.176 222.02 16.8747 221.43 17.44C220.84 18.0053 220.089 18.288 219.178 18.288ZM221.818 20.144V38H216.507V20.144H221.818ZM233.873 33.36V38H231.171C229.245 38 227.744 37.5147 226.667 36.544C225.591 35.5733 225.052 33.9893 225.052 31.792V24.688H222.94V20.144H225.052V15.792H230.363V20.144H233.842V24.688H230.363V31.856C230.363 32.3893 230.488 32.7733 230.736 33.008C230.985 33.2427 231.399 33.36 231.978 33.36H233.873ZM248.94 34.032H240.803L239.499 38H233.939L241.828 15.536H247.978L255.867 38H250.245L248.94 34.032ZM247.574 29.808L244.872 21.584L242.201 29.808H247.574ZM262.113 15.536V38H256.802V15.536H262.113Z" fill="#1EBCF6"/>
<path fill-rule="evenodd" clip-rule="evenodd" d="M11.5033 0H50.6144C56.9675 0 62.1176 5.30625 62.1176 11.8519V52.1481C62.1176 58.6937 56.9675 64 50.6144 64H11.5033C5.15019 64 0 58.6937 0 52.1481V11.8519C0 5.37171 5.0477 0.106249 11.313 0.00158781L11.5033 0Z" fill="url(#paint0_linear_228_2)"/>
<path fill-rule="evenodd" clip-rule="evenodd" d="M4.31348 46.6296H8.6272V52.1481C8.6272 53.7845 9.91475 55.1111 11.503 55.1111H16.9671V59.5556H11.503C7.53234 59.5556 4.31348 56.2391 4.31348 52.1481V46.6296ZM57.8037 46.6296V52.1481C57.8037 56.2391 54.5848 59.5556 50.6141 59.5556H45.3658V55.1111H50.6141C52.2024 55.1111 53.4899 53.7845 53.4899 52.1481V46.6296H57.8037ZM50.6141 4.44444C54.5848 4.44444 57.8037 7.76085 57.8037 11.8518V17.3704H53.4899V11.8518C53.4899 10.2155 52.2024 8.88889 50.6141 8.88889H45.3658V4.44444H50.6141ZM16.9671 8.88889H11.503C9.91475 8.88889 8.6272 10.2155 8.6272 11.8518V17.3704H4.31348V11.8518C4.31348 7.76085 7.53234 4.44444 11.503 4.44444H16.9671V8.88889Z" fill="url(#paint1_linear_228_2)"/>
<path fill-rule="evenodd" clip-rule="evenodd" d="M42.9936 33.4074C42.9936 40.1576 37.6824 45.6297 31.1308 45.6297C28.8162 45.6297 26.6565 44.9467 24.831 43.7657L26.9737 42.4213C27.377 42.8036 27.9154 43.0371 28.5066 43.0371C29.7574 43.0371 30.7713 41.9924 30.7713 40.7037C30.7713 39.4151 29.7574 38.3704 28.5066 38.3704C27.2559 38.3704 26.2419 39.4151 26.2419 40.7037C26.2419 40.8876 26.2626 41.0666 26.3016 41.2382L23.6223 42.8703C22.7937 42.1716 22.0586 41.3596 21.4392 40.4574L28.4771 36.2248C29.1632 36.9109 30.0991 37.3334 31.1308 37.3334C33.2353 37.3334 34.9413 35.5757 34.9413 33.4074H42.9936ZM28.5066 39.7408C29.0228 39.7408 29.4413 40.1719 29.4413 40.7037C29.4413 41.2356 29.0228 41.6667 28.5066 41.6667C27.9904 41.6667 27.572 41.2356 27.572 40.7037C27.572 40.1719 27.9904 39.7408 28.5066 39.7408ZM27.3204 33.4074C27.3204 33.6709 27.3455 33.9283 27.3936 34.1772L20.3095 38.4226C19.6404 36.8924 19.2681 35.1947 19.2681 33.4074H27.3204ZM31.1308 31.7778C32.0044 31.7778 32.7125 32.5074 32.7125 33.4074C32.7125 34.3075 32.0044 35.0371 31.1308 35.0371C30.2573 35.0371 29.5491 34.3075 29.5491 33.4074C29.5491 32.5074 30.2573 31.7778 31.1308 31.7778Z" fill="url(#paint2_linear_228_2)"/>
<path fill-rule="evenodd" clip-rule="evenodd" d="M31.1669 11.6111C33.5433 11.6111 35.6766 12.0628 37.5669 12.9662C38.1348 13.2374 38.4328 13.8886 38.2746 14.5126L36.1636 22.8333L39.317 16.5243C39.6418 15.8743 40.414 15.615 41.0481 15.9429C42.5869 16.7391 44.0262 17.9804 45.3662 19.6667C46.8634 21.5508 47.7116 23.7299 47.9107 26.204C48.8969 26.5418 49.6081 27.5002 49.6081 28.6296C49.6081 30.041 48.4975 31.1852 47.1277 31.1852H34.2727C33.5857 30.1562 32.4348 29.4815 31.1309 29.4815C29.8271 29.4815 28.6762 30.1562 27.9892 31.1852H15.1342C13.7643 31.1852 12.6538 30.041 12.6538 28.6296C12.6538 27.4886 13.3796 26.5223 14.3815 26.1939C14.5492 23.9581 15.2614 21.9861 16.5182 20.2778C17.7008 18.6702 19.2214 17.2835 21.0799 16.1175C21.6903 15.7345 22.4865 15.934 22.8582 16.563C22.8706 16.5841 22.8825 16.6056 22.8938 16.6274L26.1162 22.8333L23.9569 14.6757C23.7948 14.0636 24.0739 13.4186 24.6241 13.1336C26.5831 12.1186 28.7641 11.6111 31.1669 11.6111ZM31.1309 46.8889C38.3576 46.8889 44.2159 40.853 44.2159 33.4074H48.3139C48.3139 43.1849 40.6208 51.1111 31.1309 51.1111C21.641 51.1111 13.9479 43.1849 13.9479 33.4074H18.046C18.046 40.853 23.9043 46.8889 31.1309 46.8889Z" fill="url(#paint3_linear_228_2)"/>
<defs>
<linearGradient id="paint0_linear_228_2" x1="55.7034" y1="1.05471" x2="-0.396337" y2="62.3366" gradientUnits="userSpaceOnUse">
<stop stop-color="#F3F3F3"/>
<stop offset="1" stop-color="#DEDEDE"/>
</linearGradient>
<linearGradient id="paint1_linear_228_2" x1="56.5308" y1="5.46063" x2="3.64825" y2="57.977" gradientUnits="userSpaceOnUse">
<stop stop-color="#00F2B5"/>
<stop offset="0.399893" stop-color="#02E5B8"/>
<stop offset="0.615835" stop-color="#193ED7"/>
<stop offset="1" stop-color="#193ED7"/>
</linearGradient>
<linearGradient id="paint2_linear_228_2" x1="39.1699" y1="40.07" x2="24.1868" y2="43.4583" gradientUnits="userSpaceOnUse">
<stop stop-color="#1C3DD8"/>
<stop offset="1" stop-color="#0FFFC0"/>
</linearGradient>
<linearGradient id="paint3_linear_228_2" x1="50.2951" y1="31.3611" x2="15.0688" y2="41.3914" gradientUnits="userSpaceOnUse">
<stop stop-color="#FDCE0C"/>
<stop offset="1" stop-color="#F86200"/>
</linearGradient>
</defs>
</svg>
