<svg width="358" height="72" viewBox="0 0 358 72" fill="none" xmlns="http://www.w3.org/2000/svg">
<path fill-rule="evenodd" clip-rule="evenodd" d="M36 0C55.8823 0 72 16.1177 72 36C72 55.8823 55.8823 72 36 72C16.1177 72 0 55.8823 0 36C0 16.1177 16.1177 0 36 0Z" fill="white"/>
<path d="M51.2906 32.0656C50.7016 31.45 50.0922 30.8156 49.8625 30.2578C49.65 29.7469 49.6375 28.9 49.625 28.0797C49.6016 26.5547 49.5766 24.8266 48.375 23.625C47.1734 22.4234 45.4453 22.3984 43.9203 22.375C43.1 22.3625 42.2531 22.35 41.7422 22.1375C41.1859 21.9078 40.55 21.2984 39.9344 20.7094C38.8563 19.6734 37.6313 18.5 36 18.5C34.3687 18.5 33.1453 19.6734 32.0656 20.7094C31.45 21.2984 30.8156 21.9078 30.2578 22.1375C29.75 22.35 28.9 22.3625 28.0797 22.375C26.5547 22.3984 24.8266 22.4234 23.625 23.625C22.4234 24.8266 22.4062 26.5547 22.375 28.0797C22.3625 28.9 22.35 29.7469 22.1375 30.2578C21.9078 30.8141 21.2984 31.45 20.7094 32.0656C19.6734 33.1438 18.5 34.3687 18.5 36C18.5 37.6313 19.6734 38.8547 20.7094 39.9344C21.2984 40.55 21.9078 41.1844 22.1375 41.7422C22.35 42.2531 22.3625 43.1 22.375 43.9203C22.3984 45.4453 22.4234 47.1734 23.625 48.375C24.8266 49.5766 26.5547 49.6016 28.0797 49.625C28.9 49.6375 29.7469 49.65 30.2578 49.8625C30.8141 50.0922 31.45 50.7016 32.0656 51.2906C33.1438 52.3266 34.3687 53.5 36 53.5C37.6313 53.5 38.8547 52.3266 39.9344 51.2906C40.55 50.7016 41.1844 50.0922 41.7422 49.8625C42.2531 49.65 43.1 49.6375 43.9203 49.625C45.4453 49.6016 47.1734 49.5766 48.375 48.375C49.5766 47.1734 49.6016 45.4453 49.625 43.9203C49.6375 43.1 49.65 42.2531 49.8625 41.7422C50.0922 41.1859 50.7016 40.55 51.2906 39.9344C52.3266 38.8563 53.5 37.6313 53.5 36C53.5 34.3687 52.3266 33.1453 51.2906 32.0656ZM49.4859 38.2047C48.7375 38.9859 47.9625 39.7938 47.5516 40.7859C47.1578 41.7391 47.1406 42.8281 47.125 43.8828C47.1094 44.9766 47.0922 46.1219 46.6063 46.6063C46.1203 47.0906 44.9828 47.1094 43.8828 47.125C42.8281 47.1406 41.7391 47.1578 40.7859 47.5516C39.7938 47.9625 38.9859 48.7375 38.2047 49.4859C37.4234 50.2344 36.625 51 36 51C35.375 51 34.5703 50.2313 33.7953 49.4859C33.0203 48.7406 32.2062 47.9625 31.2141 47.5516C30.2609 47.1578 29.1719 47.1406 28.1172 47.125C27.0234 47.1094 25.8781 47.0922 25.3938 46.6063C24.9094 46.1203 24.8906 44.9828 24.875 43.8828C24.8594 42.8281 24.8422 41.7391 24.4484 40.7859C24.0375 39.7938 23.2625 38.9859 22.5141 38.2047C21.7656 37.4234 21 36.625 21 36C21 35.375 21.7688 34.5703 22.5141 33.7953C23.2594 33.0203 24.0375 32.2062 24.4484 31.2141C24.8422 30.2609 24.8594 29.1719 24.875 28.1172C24.8906 27.0234 24.9078 25.8781 25.3938 25.3938C25.8797 24.9094 27.0172 24.8906 28.1172 24.875C29.1719 24.8594 30.2609 24.8422 31.2141 24.4484C32.2062 24.0375 33.0141 23.2625 33.7953 22.5141C34.5766 21.7656 35.375 21 36 21C36.625 21 37.4297 21.7688 38.2047 22.5141C38.9797 23.2594 39.7938 24.0375 40.7859 24.4484C41.7391 24.8422 42.8281 24.8594 43.8828 24.875C44.9766 24.8906 46.1219 24.9078 46.6063 25.3938C47.0906 25.8797 47.1094 27.0172 47.125 28.1172C47.1406 29.1719 47.1578 30.2609 47.5516 31.2141C47.9625 32.2062 48.7375 33.0141 49.4859 33.7953C50.2344 34.5766 51 35.375 51 36C51 36.625 50.2313 37.4297 49.4859 38.2047ZM43.1344 31.3656C43.3691 31.6001 43.501 31.9182 43.501 32.25C43.501 32.5818 43.3691 32.8999 43.1344 33.1344L34.3844 41.8844C34.1499 42.1191 33.8318 42.251 33.5 42.251C33.1682 42.251 32.8501 42.1191 32.6156 41.8844L28.8656 38.1344C28.3772 37.6459 28.3772 36.8541 28.8656 36.3656C29.3541 35.8772 30.1459 35.8772 30.6344 36.3656L33.5 39.2328L41.3656 31.3656C41.6001 31.1309 41.9182 30.999 42.25 30.999C42.5818 30.999 42.8999 31.1309 43.1344 31.3656Z" fill="black"/>
<path fill-rule="evenodd" clip-rule="evenodd" d="M60 0C66.6274 0 72 5.37258 72 12C72 18.6274 66.6274 24 60 24C53.3726 24 48 18.6274 48 12C48 5.37258 53.3726 0 60 0Z" fill="#0080FF"/>
<path d="M59.0517 12.33V13.338C59.2757 13.31 59.5137 13.296 59.7657 13.296C60.0644 13.296 60.3421 13.3357 60.5987 13.415C60.8554 13.4943 61.0771 13.6157 61.2637 13.779C61.4504 13.9423 61.5997 14.143 61.7117 14.381C61.8237 14.619 61.8797 14.892 61.8797 15.2C61.8797 15.4987 61.8214 15.767 61.7047 16.005C61.5881 16.243 61.4317 16.4437 61.2357 16.607C61.0397 16.7703 60.8111 16.8963 60.5497 16.985C60.2884 17.0737 60.0131 17.118 59.7237 17.118C59.0424 17.118 58.5244 16.915 58.1697 16.509C57.8151 16.103 57.6284 15.578 57.6097 14.934H56.4197C56.4104 15.4473 56.4827 15.9047 56.6367 16.306C56.7907 16.7073 57.0124 17.0457 57.3017 17.321C57.5911 17.5963 57.9411 17.804 58.3517 17.944C58.7624 18.084 59.2197 18.154 59.7237 18.154C60.1904 18.154 60.6314 18.091 61.0467 17.965C61.4621 17.839 61.8237 17.65 62.1317 17.398C62.4397 17.146 62.6847 16.831 62.8667 16.453C63.0487 16.075 63.1397 15.6387 63.1397 15.144C63.1397 14.5467 62.9927 14.0287 62.6987 13.59C62.4047 13.1513 61.9544 12.8667 61.3477 12.736V12.708C61.7397 12.5307 62.0664 12.2693 62.3277 11.924C62.5891 11.5787 62.7197 11.182 62.7197 10.734C62.7197 10.2767 62.6427 9.88001 62.4887 9.54401C62.3347 9.20801 62.1224 8.93267 61.8517 8.71801C61.5811 8.50334 61.2614 8.34234 60.8927 8.23501C60.5241 8.12767 60.1251 8.07401 59.6957 8.07401C59.2011 8.07401 58.7647 8.15334 58.3867 8.31201C58.0087 8.47067 57.6937 8.69001 57.4417 8.97001C57.1897 9.25001 56.9961 9.58601 56.8607 9.97801C56.7254 10.37 56.6484 10.804 56.6297 11.28H57.8197C57.8197 10.9907 57.8571 10.7153 57.9317 10.454C58.0064 10.1927 58.1207 9.96401 58.2747 9.76801C58.4287 9.57201 58.6247 9.41567 58.8627 9.29901C59.1007 9.18234 59.3784 9.12401 59.6957 9.12401C60.1997 9.12401 60.6197 9.25701 60.9557 9.52301C61.2917 9.78901 61.4597 10.188 61.4597 10.72C61.4597 10.9813 61.4084 11.2147 61.3057 11.42C61.2031 11.6253 61.0654 11.7957 60.8927 11.931C60.7201 12.0663 60.5194 12.169 60.2907 12.239C60.0621 12.309 59.8217 12.344 59.5697 12.344H59.3177C59.2711 12.344 59.2244 12.344 59.1777 12.344C59.1404 12.344 59.0984 12.3393 59.0517 12.33Z" fill="white"/>
</svg>
