<svg width="358" height="72" viewBox="0 0 358 72" fill="none" xmlns="http://www.w3.org/2000/svg">
<g clip-path="url(#clip0_240_480)">
<path fill-rule="evenodd" clip-rule="evenodd" d="M36 0C55.8823 0 72 16.1177 72 36C72 55.8823 55.8823 72 36 72C16.1177 72 0 55.8823 0 36C0 16.1177 16.1177 0 36 0Z" fill="white"/>
<path d="M51 38.5V48.5C51 49.1903 50.4404 49.75 49.75 49.75H22.25C21.5596 49.75 21 49.1903 21 48.5V38.5C21 37.8096 21.5596 37.25 22.25 37.25C22.9404 37.25 23.5 37.8096 23.5 38.5V47.25H48.5V38.5C48.5 37.8096 49.0596 37.25 49.75 37.25C50.4404 37.25 51 37.8096 51 38.5ZM30.6344 28.1344L34.75 24.0172V38.5C34.75 39.1903 35.3096 39.75 36 39.75C36.6904 39.75 37.25 39.1903 37.25 38.5V24.0172L41.3656 28.1344C41.8541 28.6228 42.6459 28.6228 43.1344 28.1344C43.6228 27.6459 43.6228 26.854 43.1344 26.3656L36.8844 20.1156C36.6499 19.8809 36.3318 19.749 36 19.749C35.6682 19.749 35.3501 19.8809 35.1156 20.1156L28.8656 26.3656C28.3772 26.854 28.3772 27.6459 28.8656 28.1344C29.3541 28.6228 30.1459 28.6228 30.6344 28.1344Z" fill="black"/>
<path fill-rule="evenodd" clip-rule="evenodd" d="M60 0C66.6274 0 72 5.37258 72 12C72 18.6274 66.6274 24 60 24C53.3726 24 48 18.6274 48 12C48 5.37258 53.3726 0 60 0Z" fill="#0080FF"/>
<path d="M60.9838 18V8.07401H60.0738C60.0084 8.44734 59.8871 8.75534 59.7098 8.99801C59.5324 9.24067 59.3154 9.43201 59.0588 9.57201C58.8021 9.71201 58.5151 9.80767 58.1978 9.85901C57.8804 9.91034 57.5538 9.93601 57.2178 9.93601V10.888H59.7938V18H60.9838Z" fill="white"/>
<path d="M88 36H357.333" stroke="black" stroke-width="3" stroke-miterlimit="10" stroke-dasharray="3 3"/>
</g>
<defs>
<clipPath id="clip0_240_480">
<rect width="358" height="72" fill="white"/>
</clipPath>
</defs>
</svg>
