<svg width="358" height="72" viewBox="0 0 358 72" fill="none" xmlns="http://www.w3.org/2000/svg">
<g clip-path="url(#clip0_240_539)">
<path d="M88 36H357.333" stroke="black" stroke-width="3" stroke-miterlimit="10" stroke-dasharray="3 3"/>
<path fill-rule="evenodd" clip-rule="evenodd" d="M36 0C55.8823 0 72 16.1177 72 36C72 55.8823 55.8823 72 36 72C16.1177 72 0 55.8823 0 36C0 16.1177 16.1177 0 36 0Z" fill="white"/>
<path d="M31.625 34.1922C32.0118 33.9688 32.25 33.5561 32.25 33.1094V21.8594C32.2477 21.455 32.05 21.0767 31.7193 20.844C31.3885 20.6114 30.9657 20.553 30.5843 20.6875C23.0472 23.3551 18.5679 31.1065 20.0203 38.9688C20.0942 39.3681 20.3576 39.7067 20.7265 39.8766C20.8904 39.9532 21.0691 39.9927 21.25 39.9922C21.4694 39.9922 21.6849 39.9346 21.875 39.825L31.625 34.1922ZM29.75 23.7531V32.3875L22.2687 36.7047C22.25 36.4688 22.25 36.2313 22.25 36C22.2545 30.834 25.1504 26.1052 29.75 23.7531ZM36 19.75C35.3096 19.75 34.75 20.3096 34.75 21V35.3469L22.4359 42.5203C22.1473 42.6876 21.9375 42.9634 21.8533 43.2862C21.7691 43.609 21.8174 43.9521 21.9875 44.2391C25.977 51.0213 34.2527 53.9707 41.6325 51.2404C49.0122 48.5101 53.3755 40.8846 51.99 33.1389C50.6046 25.3931 43.8686 19.7529 36 19.75ZM36 49.75C31.5737 49.7381 27.4208 47.6074 24.8297 44.0187L36.6297 37.1437C37.016 36.9207 37.2542 36.5086 37.2547 36.0625V22.3063C44.5791 22.9708 50.0838 29.2812 49.7479 36.628C49.412 43.9748 43.3544 49.7566 36 49.75Z" fill="black"/>
<path fill-rule="evenodd" clip-rule="evenodd" d="M60 0C66.6274 0 72 5.37258 72 12C72 18.6274 66.6274 24 60 24C53.3726 24 48 18.6274 48 12C48 5.37258 53.3726 0 60 0Z" fill="#0080FF"/>
<path d="M56.6159 11.588H57.8059C57.7966 11.2893 57.8269 10.993 57.8969 10.699C57.9669 10.405 58.0813 10.1413 58.2399 9.90801C58.3986 9.67467 58.6016 9.48567 58.8489 9.34101C59.0963 9.19634 59.3926 9.12401 59.7379 9.12401C59.9993 9.12401 60.2466 9.16601 60.4799 9.25001C60.7133 9.33401 60.9163 9.45534 61.0889 9.61401C61.2616 9.77267 61.3993 9.96167 61.5019 10.181C61.6046 10.4003 61.6559 10.6453 61.6559 10.916C61.6559 11.2613 61.6023 11.5647 61.4949 11.826C61.3876 12.0873 61.2289 12.33 61.0189 12.554C60.8089 12.778 60.5453 12.9997 60.2279 13.219C59.9106 13.4383 59.5419 13.6787 59.1219 13.94C58.7766 14.1453 58.4453 14.3647 58.1279 14.598C57.8106 14.8313 57.5259 15.102 57.2739 15.41C57.0219 15.718 56.8143 16.0797 56.6509 16.495C56.4876 16.9103 56.3826 17.412 56.3359 18H62.8179V16.95H57.7219C57.7779 16.642 57.8969 16.369 58.0789 16.131C58.2609 15.893 58.4803 15.6713 58.7369 15.466C58.9936 15.2607 59.2759 15.067 59.5839 14.885C59.8919 14.703 60.1999 14.5187 60.5079 14.332C60.8159 14.136 61.1146 13.9307 61.4039 13.716C61.6933 13.5013 61.9499 13.261 62.1739 12.995C62.3979 12.729 62.5776 12.428 62.7129 12.092C62.8483 11.756 62.9159 11.3687 62.9159 10.93C62.9159 10.4633 62.8343 10.0527 62.6709 9.69801C62.5076 9.34334 62.2859 9.04701 62.0059 8.80901C61.7259 8.57101 61.3969 8.38901 61.0189 8.26301C60.6409 8.13701 60.2373 8.07401 59.8079 8.07401C59.2853 8.07401 58.8186 8.16267 58.4079 8.34001C57.9973 8.51734 57.6543 8.76234 57.3789 9.07501C57.1036 9.38767 56.9006 9.75867 56.7699 10.188C56.6393 10.6173 56.5879 11.084 56.6159 11.588Z" fill="white"/>
</g>
<defs>
<clipPath id="clip0_240_539">
<rect width="358" height="72" fill="white"/>
</clipPath>
</defs>
</svg>
